<svg xmlns="http://www.w3.org/2000/svg" xmlns:html="http://www.w3.org/1999/xhtml" xmlns:xlink="http://www.w3.org/1999/xlink" version="1.1" style="--editorTheme3-blockText: #FFFFFF; --editorTheme3-inputColor: #FFFFFF; --editorTheme3-inputColor-text: #575E75; --editorTheme3-motion-primary: #4C97FF; --editorTheme3-motion-secondary: #4280D7; --editorTheme3-motion-tertiary: #3373CC; --editorTheme3-motion-field-background: #3373CC; --editorTheme3-looks-primary: #9966FF; --editorTheme3-looks-secondary: #855CD6; --editorTheme3-looks-tertiary: #774DCB; --editorTheme3-looks-field-background: #774DCB; --editorTheme3-sounds-primary: #CF63CF; --editorTheme3-sounds-secondary: #C94FC9; --editorTheme3-sounds-tertiary: #BD42BD; --editorTheme3-sounds-field-background: #BD42BD; --editorTheme3-control-primary: #FFAB19; --editorTheme3-control-secondary: #EC9C13; --editorTheme3-control-tertiary: #CF8B17; --editorTheme3-control-field-background: #CF8B17; --editorTheme3-event-primary: #FFBF00; --editorTheme3-event-secondary: #E6AC00; --editorTheme3-event-tertiary: #CC9900; --editorTheme3-event-field-background: #CC9900; --editorTheme3-sensing-primary: #5CB1D6; --editorTheme3-sensing-secondary: #47A8D1; --editorTheme3-sensing-tertiary: #2E8EB8; --editorTheme3-sensing-field-background: #2E8EB8; --editorTheme3-pen-primary: #0fBD8C; --editorTheme3-pen-secondary: #0DA57A; --editorTheme3-pen-tertiary: #0B8E69; --editorTheme3-pen-field-background: #0B8E69; --editorTheme3-operators-primary: #59C059; --editorTheme3-operators-secondary: #46B946; --editorTheme3-operators-tertiary: #389438; --editorTheme3-operators-field-background: #389438; --editorTheme3-data-primary: #FF8C1A; --editorTheme3-data-secondary: #FF8000; --editorTheme3-data-tertiary: #DB6E00; --editorTheme3-data-field-background: #DB6E00; --editorTheme3-data_lists-primary: #FF661A; --editorTheme3-data_lists-secondary: #FF5500; --editorTheme3-data_lists-tertiary: #E64D00; --editorTheme3-data_lists-field-background: #E64D00; --editorTheme3-more-primary: #FF6680; --editorTheme3-more-secondary: #FF4D6A; --editorTheme3-more-tertiary: #FF3355; --editorTheme3-more-field-background: #FF3355; --editorTheme3-addons-primary: #29beb8; --editorTheme3-addons-secondary: #3aa8a4; --editorTheme3-addons-tertiary: #3aa8a4; --editorTheme3-addons-field-background: #3aa8a4;"><style xmlns="http://www.w3.org/1999/xhtml">
    .blocklyText {
        fill: #FFFFFF;
        font-family: "Helvetica Neue", Helvetica, sans-serif;
        font-size: 12pt;
        font-weight: 500;
    }
    .blocklyNonEditableText&gt;text, .blocklyEditableText&gt;text {
        fill: #575E75;
    }
    .blocklyDropdownText {
        fill: #FFFFFF !important;
    }
    </style><g data-id="0$cfI}NSb/;8E=y5lbM=" class="blocklyDraggable blocklySelected" data-shapes="hat" data-category="Colorful Comments!" transform="translate(0,32) scale(1)"><path class="blocklyPath blocklyBlockBackground" stroke="#7C3212" fill="#FF6726" fill-opacity="1" d="m 0,0 c2.6,-2.3 5.5,-4.3 8.5,-6.2c-1,-12.5 5.3,-23.3 8.4,-24.8c3.7,-1.8 16.5,13.1 18.4,15.4c8.4,-1.3 17,-1.3 25.4,0c1.9,-2.3 14.7,-17.2 18.4,-15.4c3.1,1.5 9.4,12.3 8.4,24.8c3,1.8 5.9,3.9 8.5,6.1 H 96 a 4,4 0 0,1 4,4 v 40  a 4,4 0 0,1 -4,4 H 48   c -2,0 -3,1 -4,2 l -4,4 c -1,1 -2,2 -4,2 h -12 c -2,0 -3,-1 -4,-2 l -4,-4 c -1,-1 -2,-2 -4,-2 H 4 a 4,4 0 0,1 -4,-4 z"/><g data-id="#RAyxIv%48UDDlUAmd{L" data-argument-type="text" style="cursor: text;" data-shapes="argument round" transform="translate(32.41975212097168,8)"><path class="blocklyPath blocklyBlockBackground" stroke="#7C3212" fill="#FFFFFF" fill-opacity="1" d="m 0,0 m 16,0 H 24 a 16 16 0 0 1 0 32 H 16 a 16 16 0 0 1 0 -32 z"/><g class="blocklyEditableText" transform="translate(8, 0) "><text class="blocklyText" x="12" y="18" dominant-baseline="middle" dy="0" text-anchor="middle"> </text></g><g><g/></g></g><text class="blocklyText" y="2" text-anchor="middle" dominant-baseline="middle" dy="0" x="8.20987606048584" transform="translate(8, 24) ">//^</text><path class="blocklyPath" style="visibility: hidden" d="" fill="#7C3212"/><g><g fill="#000000"><path d="M25.2-1.1c0.1,0,0.2,0,0.2,0l8.3-2.1l-7-4.8c-0.5-0.3-1.1-0.2-1.4,0.3s-0.2,1.1,0.3,1.4L29-4.1l-4,1c-0.5,0.1-0.9,0.7-0.7,1.2C24.3-1.4,24.7-1.1,25.2-1.1z" fill-opacity="0"/><path d="M62.4-1.1c-0.1,0-0.2,0-0.2,0l-8.3-2.1l7-4.8c0.5-0.3,1.1-0.2,1.4,0.3s0.2,1.1-0.3,1.4l-3.4,2.3l4,1c0.5,0.1,0.9,0.7,0.7,1.2C63.2-1.4,62.8-1.1,62.4-1.1z" fill-opacity="0"/><circle cx="59.2" cy="-3.3" r="3.4" fill-opacity="0.6"/><circle cx="29.1" cy="-3.3" r="3.4" fill-opacity="0.6"/><path d="M45.6,0.1c-0.9,0-1.7-0.3-2.3-0.9c-0.6,0.6-1.3,0.9-2.2,0.9c-0.9,0-1.8-0.3-2.3-0.9c-1-1.1-1.1-2.6-1.1-2.8c0-0.5,0.5-1,1-1l0,0c0.6,0,1,0.5,1,1c0,0.4,0.1,1.7,1.4,1.7c0.5,0,0.7-0.2,0.8-0.3c0.3-0.3,0.4-1,0.4-1.3c0-0.1,0-0.1,0-0.2c0-0.5,0.5-1,1-1l0,0c0.5,0,1,0.4,1,1c0,0,0,0.1,0,0.2c0,0.3,0.1,0.9,0.4,1.2C44.8-2.2,45-2,45.5-2s0.7-0.2,0.8-0.3c0.3-0.4,0.4-1.1,0.3-1.3c0-0.5,0.4-1,0.9-1.1c0.5,0,1,0.4,1.1,0.9c0,0.2,0.1,1.8-0.8,2.8C47.5-0.4,46.8,0.1,45.6,0.1z" fill-opacity="0.6"/></g><path d="M73.1-15.6c1.7-4.2,4.5-9.1,5.8-8.5c1.6,0.8,5.4,7.9,5,15.4c0,0.6-0.7,0.7-1.1,0.5c-3-1.6-6.4-2.8-8.6-3.6C72.8-12.3,72.4-13.7,73.1-15.6z" fill="#FFD5E6"/><path d="M22.4-15.6c-1.7-4.2-4.5-9.1-5.8-8.5c-1.6,0.8-5.4,7.9-5,15.4c0,0.6,0.7,0.7,1.1,0.5c3-1.6,6.4-2.8,8.6-3.6C22.8-12.3,23.2-13.7,22.4-15.6z" fill="#FFD5E6"/></g></g></svg>